<?xml version="1.0" encoding="utf-8"?>
<!-- Generator: Adobe Illustrator 17.0.0, SVG Export Plug-In . SVG Version: 6.00 Build 0)  -->
<!DOCTYPE svg PUBLIC "-//W3C//DTD SVG 1.1//EN" "http://www.w3.org/Graphics/SVG/1.1/DTD/svg11.dtd">
<svg version="1.1" id="Layer_1" xmlns="http://www.w3.org/2000/svg" xmlns:xlink="http://www.w3.org/1999/xlink" x="0px" y="0px"
	 width="50px" height="50px" viewBox="0 0 50 50" enable-background="new 0 0 50 50" xml:space="preserve">
<circle fill="#A18AC0" cx="24.961" cy="24.961" r="24.961"/>
<g>
	<circle fill="#785020" cx="23.775" cy="8.823" r="6.198"/>
	<circle fill="#2A1C0E" cx="37.941" cy="14.601" r="5.695"/>
	<circle fill="#FFCD73" cx="11.932" cy="16.812" r="5.646"/>
	<path fill="#617B36" d="M16.389,27.632v9.57c0,0.223-0.017,0.442-0.048,0.656c-0.317,2.151-2.17,3.801-4.409,3.801
		s-4.092-1.65-4.409-3.801c-0.032-0.214-0.048-0.433-0.048-0.656v-9.57c0-2.462,1.996-4.457,4.457-4.457
		S16.389,25.171,16.389,27.632z"/>
	<path fill="#3A53A4" d="M28.232,20.628v16.575c0,2.462-1.996,4.457-4.457,4.457s-4.457-1.996-4.457-4.457V20.628
		c0-2.462,1.996-4.457,4.457-4.457S28.232,18.166,28.232,20.628z"/>
	<path fill="#DE0B83" d="M42.397,26.588v9.57c0,0.223-0.017,0.442-0.048,0.656c-0.317,2.151-2.17,3.801-4.409,3.801
		c-2.239,0-4.092-1.65-4.409-3.801c-0.032-0.214-0.048-0.433-0.048-0.656v-9.57c0-2.462,1.996-4.457,4.457-4.457
		C40.402,22.131,42.397,24.126,42.397,26.588z"/>
</g>
<g>
</g>
<g>
</g>
<g>
</g>
<g>
</g>
<g>
</g>
<g>
</g>
</svg>
