<?xml version="1.0" encoding="utf-8"?>
<!-- Generator: Adobe Illustrator 17.0.0, SVG Export Plug-In . SVG Version: 6.00 Build 0)  -->
<!DOCTYPE svg PUBLIC "-//W3C//DTD SVG 1.1//EN" "http://www.w3.org/Graphics/SVG/1.1/DTD/svg11.dtd">
<svg version="1.1" id="Layer_1" xmlns="http://www.w3.org/2000/svg" xmlns:xlink="http://www.w3.org/1999/xlink" x="0px" y="0px"
	 width="700px" height="400px" viewBox="0 0 700 400" enable-background="new 0 0 700 400" xml:space="preserve">
<polygon points="403.751,0 403.751,183.66 385.341,156.649 82.346,156.649 82.346,0 "/>
<path fill="#FFFFFF" stroke="#000000" stroke-miterlimit="10" d="M174.504,30.456v39.029c-5.045-3.364-11.116-5.312-17.638-5.312
	c-17.638,0-31.933,14.295-31.933,31.933c0,5.702,1.497,11.054,4.122,15.669l-12.716,24.857l24.857-12.716
	c4.614,2.625,9.967,4.122,15.669,4.122c17.638,0,31.933-14.295,31.933-31.933v-65.65H174.504z M165.418,111.529l-1.067,0.533
	c-2.276,1.087-4.82,1.682-7.486,1.682c-4.861,0-9.291-1.969-12.47-5.168c-3.199-3.199-5.168-7.588-5.168-12.47
	c0-2.666,0.595-5.21,1.661-7.465l0.697-1.374c3.076-5.271,8.757-8.798,15.28-8.798c9.742,0,17.638,7.896,17.638,17.638
	C174.504,102.751,170.832,108.535,165.418,111.529z"/>
<path fill="#5D5D5D" d="M313.446,29.624c6.887,0,13.695,0,20.631,0c0,11.52,0,22.989,0,34.458c0.091,0.023,0.183,0.047,0.275,0.071
	c0.119-0.331,0.249-0.658,0.356-0.992c1.854-5.796,3.716-11.589,5.541-17.395c0.229-0.728,0.534-1.005,1.322-0.999
	c5.117,0.041,10.235,0.021,15.352,0.023c0.28,0,0.559,0.028,0.965,0.051c-0.604,1.991-1.185,3.912-1.769,5.832
	c-2.105,6.927-4.219,13.852-6.298,20.787c-0.156,0.519-0.192,1.154-0.057,1.674c3.364,12.984,6.758,25.959,10.148,38.936
	c0.152,0.579,0.319,1.154,0.506,1.83c-0.582,0.042-1.035,0.102-1.488,0.103c-5.721,0.006-11.443-0.017-17.165,0.026
	c-0.908,0.007-1.268-0.247-1.463-1.183c-1.913-9.179-3.879-18.347-5.833-27.517c-0.028-0.134-0.096-0.258-0.33-0.373
	c0,9.625,0,19.25,0,28.964c-6.972,0-13.802,0-20.693,0C313.446,85.843,313.446,57.785,313.446,29.624z"/>
<path fill="#5D5D5D" d="M277.593,113.966c-6.73,0-13.332,0-20.045,0c0-1.852,0-3.677,0-5.46c-1.195,1.334-2.307,2.686-3.537,3.919
	c-1.161,1.164-2.552,1.707-4.302,1.621c-2.978-0.147-5.969-0.077-8.953-0.031c-3.311,0.051-5.631-1.651-7.409-4.196
	c-1.327-1.9-1.949-4.154-2.014-6.42c-0.141-4.891-0.176-9.793-0.004-14.682c0.133-3.769,1.906-6.748,5.427-8.396
	c3.684-1.725,7.429-3.319,11.143-4.978c2.1-0.938,4.191-1.899,6.29-2.839c1.549-0.694,2.483-1.781,2.576-3.563
	c0.169-3.229,0.379-6.461-0.328-9.649c-0.454-2.046-2.026-2.886-4.032-2.324c-0.837,0.235-1.42,0.721-1.515,1.583
	c-0.183,1.654-0.366,3.315-0.403,4.977c-0.064,2.904-0.018,5.81-0.018,8.768c-6.481,0-12.865,0-19.427,0
	c0-0.465-0.022-0.944,0.004-1.42c0.195-3.645,0.245-7.306,0.635-10.93c0.632-5.875,4.282-9.622,9.252-12.301
	c3.149-1.697,6.569-2.453,10.099-2.687c4.984-0.331,9.96-0.218,14.738,1.423c5.131,1.763,9.087,4.944,10.537,10.371
	c0.688,2.574,0.958,5.324,0.989,7.999c0.189,16.056,0.255,32.114,0.358,48.171C277.656,113.234,277.618,113.547,277.593,113.966z
	 M256.827,81.69c-1.334,1.175-2.485,2.118-3.551,3.148c-1.192,1.151-2.204,2.506-2.326,4.193c-0.225,3.103-0.321,6.218-0.359,9.329
	c-0.012,1.041,0.215,2.118,0.516,3.124c0.401,1.342,1.653,1.947,3.251,1.759c1.424-0.168,2.096-0.843,2.298-2.336
	c0.09-0.667,0.204-1.338,0.207-2.007c0.024-5.429,0.026-10.859,0.031-16.289C256.895,82.411,256.866,82.212,256.827,81.69z"/>
<path fill="#5D5D5D" d="M284.685,30.456c7.084,0,14.078,0,21.15,0c0,27.824,0,55.627,0,83.49c-7.049,0-14.066,0-21.15,0
	C284.685,86.125,284.685,58.35,284.685,30.456z"/>
<path fill="#5D5D5D" d="M228.222,112.641c0,4.489,0,8.893,0,13.42c-0.316,0.039-0.618,0.108-0.919,0.108
	c-3.945,0-7.891,0.082-11.833-0.054c-2.011-0.069-4.031-0.405-6.014-0.849c-3.577-0.799-7.913-4.996-8.065-11.304
	c-0.079-3.262-0.34-6.521-0.348-9.782c-0.038-15.113-0.017-30.226-0.017-45.339c0-0.519,0-1.038,0-1.698c-1.536,0-2.975,0-4.483,0
	c0-4.449,0-8.756,0-13.225c1.449,0,2.886,0,4.428,0c0-4.553,0-8.949,0-13.463c6.969,0,13.831,0,20.812,0c0,4.431,0,8.83,0,13.371
	c1.907,0,3.699,0,5.56,0c0,4.49,0,8.834,0,13.3c-1.838,0-3.635,0-5.558,0c0,0.64,0,1.16,0,1.68c0,14.936-0.011,29.873,0.013,44.809
	c0.003,2.069,0.14,4.143,0.298,6.205c0.146,1.895,0.508,2.285,2.089,2.467C225.49,112.438,226.8,112.519,228.222,112.641z"/>
<g>
	<path d="M104.535,173.122l-1.521,6.427h-0.572c0.09-0.752,0.135-1.309,0.135-1.67c0-0.983-0.434-1.854-1.302-2.612
		c-0.868-0.757-2.065-1.136-3.59-1.136c-3.121,0-5.67,1.465-7.647,4.395c-1.576,2.318-2.363,4.913-2.363,7.782
		c0,1.907,0.487,3.553,1.46,4.938c0.973,1.385,2.474,2.077,4.5,2.077c0.502,0,0.976-0.045,1.422-0.135
		c0.447-0.091,1.122-0.291,2.025-0.603l1.49-5.253c0.21-0.723,0.316-1.3,0.316-1.731c0-0.361-0.13-0.638-0.391-0.828
		c-0.421-0.291-1.104-0.437-2.047-0.437H96.03l0.166-0.587h8.49l-0.15,0.587c-0.773,0.01-1.335,0.101-1.686,0.271
		c-0.352,0.17-0.652,0.461-0.903,0.873c-0.17,0.271-0.446,1.059-0.828,2.363l-1.505,5.163c-1.375,0.592-2.484,0.985-3.327,1.182
		c-0.843,0.195-1.731,0.293-2.665,0.293c-2.147,0-3.889-0.404-5.223-1.212c-1.335-0.808-2.321-1.876-2.958-3.206
		c-0.637-1.329-0.956-2.651-0.956-3.966c0-1.767,0.371-3.445,1.114-5.035c0.743-1.591,1.668-2.936,2.777-4.035
		c1.108-1.099,2.315-1.964,3.62-2.597c1.796-0.873,3.683-1.31,5.66-1.31c1.455,0,2.77,0.241,3.944,0.723
		c0.472,0.191,0.818,0.286,1.039,0.286c0.25,0,0.464-0.058,0.64-0.173c0.175-0.115,0.404-0.394,0.685-0.835H104.535z"/>
	<path d="M108.283,188.325c-0.07,0.502-0.105,0.918-0.105,1.249c0,0.894,0.316,1.653,0.948,2.28c0.632,0.628,1.4,0.941,2.303,0.941
		c0.723,0,1.417-0.148,2.085-0.444c0.667-0.296,1.658-0.95,2.973-1.964l0.316,0.437c-2.378,2.358-4.646,3.537-6.804,3.537
		c-1.465,0-2.569-0.462-3.312-1.385s-1.114-1.942-1.114-3.056c0-1.495,0.461-3.025,1.385-4.592c0.923-1.565,2.083-2.782,3.478-3.649
		c1.395-0.868,2.83-1.303,4.305-1.303c1.064,0,1.852,0.216,2.363,0.647c0.512,0.432,0.768,0.943,0.768,1.535
		c0,0.833-0.332,1.631-0.994,2.394c-0.873,0.993-2.158,1.797-3.854,2.408C111.9,187.773,110.32,188.095,108.283,188.325z
		 M108.388,187.588c1.485-0.171,2.694-0.462,3.628-0.873c1.234-0.552,2.16-1.212,2.777-1.979c0.617-0.769,0.926-1.498,0.926-2.19
		c0-0.422-0.133-0.763-0.399-1.023c-0.266-0.261-0.645-0.392-1.136-0.392c-1.024,0-2.11,0.544-3.259,1.633
		C109.775,183.852,108.93,185.46,108.388,187.588z"/>
	<path d="M126.301,176.644l-1.174,4.094h2.363l-0.256,0.948h-2.348l-2.589,8.882c-0.281,0.953-0.421,1.57-0.421,1.852
		c0,0.17,0.04,0.301,0.121,0.391c0.08,0.091,0.175,0.136,0.286,0.136c0.251,0,0.582-0.176,0.994-0.526
		c0.241-0.201,0.778-0.818,1.611-1.852l0.497,0.376c-0.923,1.345-1.796,2.293-2.619,2.845c-0.562,0.382-1.129,0.572-1.701,0.572
		c-0.441,0-0.803-0.138-1.083-0.414c-0.281-0.275-0.421-0.63-0.421-1.062c0-0.542,0.16-1.369,0.481-2.483l2.514-8.716h-2.273
		l0.151-0.587c1.104-0.301,2.022-0.75,2.754-1.347c0.732-0.598,1.551-1.634,2.454-3.109H126.301z"/>
	<path d="M141.655,180.377l-2.98,10.553c-0.201,0.712-0.301,1.139-0.301,1.279c0,0.16,0.047,0.291,0.143,0.391
		c0.096,0.101,0.208,0.151,0.339,0.151c0.15,0,0.331-0.081,0.542-0.241c0.572-0.451,1.149-1.094,1.731-1.927l0.527,0.347
		c-0.683,1.043-1.485,1.921-2.408,2.634c-0.683,0.532-1.335,0.798-1.957,0.798c-0.412,0-0.748-0.123-1.009-0.369
		c-0.261-0.245-0.391-0.554-0.391-0.926c0-0.371,0.125-0.988,0.376-1.852l1.957-6.743c0.321-1.104,0.482-1.796,0.482-2.077
		c0-0.221-0.078-0.401-0.233-0.542c-0.156-0.141-0.369-0.211-0.64-0.211c-0.221,0-0.678,0.056-1.37,0.166v-0.588L141.655,180.377z
		 M141.459,174.401c0.422,0,0.778,0.146,1.069,0.437s0.437,0.647,0.437,1.068c0,0.412-0.148,0.766-0.444,1.062
		c-0.296,0.296-0.65,0.444-1.062,0.444s-0.765-0.148-1.061-0.444s-0.444-0.65-0.444-1.062c0-0.421,0.145-0.777,0.437-1.068
		C140.681,174.547,141.038,174.401,141.459,174.401z"/>
	<path d="M149.934,180.377l-2.002,6.85c1.876-2.8,3.314-4.642,4.313-5.524c0.998-0.883,1.959-1.325,2.882-1.325
		c0.502,0,0.916,0.166,1.242,0.497s0.489,0.763,0.489,1.294c0,0.603-0.146,1.405-0.437,2.409l-1.836,6.337
		c-0.21,0.732-0.316,1.18-0.316,1.34c0,0.141,0.04,0.259,0.121,0.354c0.08,0.096,0.166,0.144,0.256,0.144
		c0.12,0,0.266-0.065,0.437-0.196c0.532-0.421,1.114-1.063,1.746-1.927l0.466,0.286c-0.933,1.335-1.816,2.288-2.649,2.86
		c-0.583,0.392-1.104,0.587-1.566,0.587c-0.371,0-0.667-0.113-0.888-0.339c-0.221-0.226-0.332-0.529-0.332-0.91
		c0-0.482,0.171-1.31,0.512-2.484l1.746-6.051c0.22-0.753,0.331-1.34,0.331-1.762c0-0.2-0.065-0.363-0.196-0.489
		c-0.13-0.125-0.291-0.188-0.481-0.188c-0.281,0-0.617,0.12-1.009,0.361c-0.743,0.451-1.515,1.196-2.318,2.235
		c-0.803,1.038-1.651,2.365-2.544,3.981c-0.472,0.853-0.863,1.786-1.174,2.8L145.976,194h-2.258l2.74-9.423
		c0.321-1.134,0.482-1.816,0.482-2.048c0-0.22-0.088-0.413-0.264-0.579c-0.176-0.166-0.394-0.248-0.655-0.248
		c-0.121,0-0.331,0.02-0.632,0.06l-0.572,0.091l-0.09-0.542L149.934,180.377z"/>
	<path d="M174.26,176.644l-1.174,4.094h2.363l-0.256,0.948h-2.348l-2.589,8.882c-0.281,0.953-0.421,1.57-0.421,1.852
		c0,0.17,0.04,0.301,0.121,0.391c0.08,0.091,0.175,0.136,0.286,0.136c0.251,0,0.582-0.176,0.994-0.526
		c0.241-0.201,0.778-0.818,1.611-1.852l0.497,0.376c-0.923,1.345-1.796,2.293-2.619,2.845c-0.562,0.382-1.129,0.572-1.701,0.572
		c-0.441,0-0.803-0.138-1.083-0.414c-0.281-0.275-0.421-0.63-0.421-1.062c0-0.542,0.16-1.369,0.481-2.483l2.514-8.716h-2.273
		l0.151-0.587c1.104-0.301,2.022-0.75,2.754-1.347c0.732-0.598,1.551-1.634,2.454-3.109H174.26z"/>
	<path d="M189.071,185.089c0,1.505-0.399,2.995-1.196,4.471c-0.798,1.475-1.91,2.645-3.334,3.507
		c-1.425,0.863-2.81,1.295-4.155,1.295c-1.375,0-2.496-0.438-3.364-1.317c-0.868-0.878-1.302-2.015-1.302-3.409
		c0-1.476,0.424-2.955,1.272-4.44c0.848-1.485,1.981-2.659,3.402-3.522c1.42-0.863,2.792-1.295,4.117-1.295
		c1.325,0,2.416,0.437,3.274,1.31C188.643,182.56,189.071,183.694,189.071,185.089z M186.573,184.05
		c0-0.933-0.229-1.648-0.685-2.145c-0.457-0.497-1.046-0.745-1.769-0.745c-1.475,0-2.833,1.056-4.072,3.168
		c-1.24,2.113-1.859,4.213-1.859,6.3c0,0.954,0.241,1.688,0.722,2.205c0.482,0.518,1.089,0.775,1.822,0.775
		c1.415,0,2.742-1.051,3.981-3.153C185.953,188.353,186.573,186.218,186.573,184.05z"/>
	<path d="M204.741,180.738l-2.619,8.972c-0.391,1.335-0.587,2.178-0.587,2.529c0,0.181,0.033,0.313,0.098,0.398
		c0.065,0.085,0.153,0.128,0.264,0.128c0.17,0,0.358-0.077,0.564-0.233c0.206-0.155,0.725-0.775,1.558-1.859l0.452,0.347
		c-0.793,1.255-1.606,2.178-2.439,2.77c-0.552,0.382-1.083,0.572-1.595,0.572c-0.392,0-0.698-0.11-0.918-0.331
		s-0.331-0.507-0.331-0.858c0-0.341,0.065-0.792,0.196-1.354c0.16-0.742,0.617-2.358,1.37-4.847c-1.706,2.8-3.134,4.731-4.283,5.795
		s-2.215,1.596-3.199,1.596c-0.461,0-0.853-0.161-1.174-0.481c-0.321-0.321-0.482-0.728-0.482-1.22c0-0.753,0.221-1.906,0.663-3.462
		l1.31-4.651c0.321-1.114,0.481-1.807,0.481-2.077c0-0.121-0.042-0.224-0.128-0.309s-0.178-0.128-0.278-0.128
		c-0.211,0-0.421,0.075-0.632,0.226s-0.688,0.707-1.43,1.671l-0.466-0.331c0.752-1.164,1.55-2.022,2.393-2.574
		c0.642-0.432,1.234-0.647,1.776-0.647c0.371,0,0.675,0.118,0.911,0.354c0.236,0.236,0.354,0.54,0.354,0.911
		c0,0.542-0.201,1.511-0.602,2.905l-1.415,4.862c-0.392,1.324-0.587,2.162-0.587,2.514c0,0.19,0.063,0.344,0.188,0.459
		s0.293,0.173,0.504,0.173c0.331,0,0.762-0.165,1.294-0.496c0.532-0.332,1.242-1.066,2.13-2.206
		c0.888-1.139,1.621-2.207,2.198-3.206c0.577-0.998,1.191-2.586,1.844-4.764l0.332-1.145H204.741z"/>
	<path d="M217.551,190.719c-1.044,1.254-2.098,2.175-3.161,2.762s-2.188,0.881-3.372,0.881c-1.425,0-2.537-0.401-3.334-1.204
		s-1.197-1.882-1.197-3.236c0-1.535,0.429-3.046,1.287-4.531s2.012-2.691,3.462-3.62c1.45-0.928,2.873-1.393,4.268-1.393
		c1.093,0,1.912,0.229,2.454,0.686c0.542,0.456,0.813,1.016,0.813,1.678c0,0.623-0.19,1.154-0.572,1.596
		c-0.281,0.342-0.627,0.512-1.039,0.512c-0.312,0-0.57-0.1-0.775-0.301c-0.206-0.201-0.309-0.452-0.309-0.753
		c0-0.19,0.038-0.366,0.113-0.526c0.075-0.161,0.231-0.354,0.467-0.58s0.378-0.389,0.429-0.489c0.05-0.1,0.076-0.205,0.076-0.315
		c0-0.211-0.096-0.387-0.286-0.527c-0.291-0.2-0.703-0.301-1.234-0.301c-0.983,0-1.957,0.346-2.92,1.038s-1.786,1.677-2.469,2.951
		c-0.823,1.545-1.234,3.091-1.234,4.636c0,1.023,0.291,1.834,0.873,2.432c0.582,0.597,1.375,0.896,2.378,0.896
		c0.773,0,1.538-0.193,2.296-0.58c0.757-0.386,1.608-1.086,2.551-2.1L217.551,190.719z"/>
	<path d="M228.375,172.595l-4.23,14.616c1.826-2.749,3.251-4.576,4.275-5.479c1.024-0.902,2.002-1.354,2.936-1.354
		c0.481,0,0.883,0.166,1.204,0.497s0.482,0.772,0.482,1.324c0,0.663-0.141,1.466-0.422,2.409l-1.836,6.307
		c-0.231,0.763-0.346,1.185-0.346,1.265c0,0.141,0.042,0.256,0.128,0.346c0.085,0.091,0.183,0.136,0.293,0.136
		c0.13,0,0.281-0.065,0.452-0.195c0.572-0.441,1.139-1.054,1.701-1.837l0.467,0.286c-0.341,0.532-0.815,1.116-1.423,1.754
		c-0.607,0.638-1.129,1.079-1.565,1.324c-0.437,0.246-0.826,0.369-1.167,0.369c-0.372,0-0.675-0.118-0.911-0.354
		c-0.236-0.236-0.354-0.54-0.354-0.911c0-0.441,0.176-1.265,0.527-2.469l1.731-6.021c0.22-0.753,0.331-1.345,0.331-1.776
		c0-0.201-0.063-0.361-0.188-0.482c-0.126-0.12-0.289-0.181-0.489-0.181c-0.292,0-0.623,0.111-0.994,0.332
		c-0.683,0.421-1.47,1.204-2.363,2.348c-0.241,0.312-1.044,1.565-2.409,3.764c-0.421,0.702-0.768,1.47-1.039,2.303L222.203,194
		h-2.258l4.952-17.221l0.527-1.866c0-0.261-0.108-0.492-0.323-0.692c-0.216-0.201-0.479-0.301-0.791-0.301
		c-0.181,0-0.457,0.03-0.828,0.09l-0.316,0.045v-0.587L228.375,172.595z"/>
	<path d="M255.364,180.377l1.039,11.29c1.746-2.048,3.141-3.969,4.185-5.766c0.612-1.054,0.918-1.816,0.918-2.288
		c0-0.221-0.05-0.416-0.151-0.587c-0.04-0.09-0.198-0.223-0.474-0.398s-0.469-0.356-0.58-0.542s-0.166-0.384-0.166-0.595
		c0-0.312,0.115-0.574,0.346-0.79s0.527-0.324,0.888-0.324c0.412,0,0.76,0.153,1.046,0.459c0.286,0.307,0.429,0.716,0.429,1.228
		c0,0.521-0.075,1.008-0.226,1.46c-0.301,0.863-0.888,1.977-1.761,3.342c-1.064,1.636-2.16,3.153-3.289,4.553
		c-1.129,1.4-1.97,2.382-2.521,2.943h-0.557l-0.979-10.417l-6.217,10.417h-0.663c-0.07-4.285-0.286-7.667-0.647-10.146
		c-0.151-1.033-0.402-1.711-0.753-2.032c-0.251-0.23-0.632-0.347-1.144-0.347c-0.291,0-0.662,0.03-1.114,0.091v-0.542l4.32-1.009
		c0.602,1.676,0.993,4.25,1.174,7.723c0.061,1.314,0.11,2.143,0.151,2.483l6.187-10.206H255.364z"/>
	<path d="M270.101,180.377l-2.98,10.553c-0.201,0.712-0.301,1.139-0.301,1.279c0,0.16,0.047,0.291,0.143,0.391
		c0.096,0.101,0.208,0.151,0.339,0.151c0.15,0,0.331-0.081,0.542-0.241c0.572-0.451,1.149-1.094,1.731-1.927l0.527,0.347
		c-0.683,1.043-1.485,1.921-2.408,2.634c-0.683,0.532-1.335,0.798-1.957,0.798c-0.412,0-0.748-0.123-1.009-0.369
		c-0.261-0.245-0.391-0.554-0.391-0.926c0-0.371,0.125-0.988,0.376-1.852l1.957-6.743c0.321-1.104,0.482-1.796,0.482-2.077
		c0-0.221-0.078-0.401-0.233-0.542c-0.156-0.141-0.369-0.211-0.64-0.211c-0.221,0-0.678,0.056-1.37,0.166v-0.588L270.101,180.377z
		 M269.905,174.401c0.422,0,0.778,0.146,1.069,0.437s0.437,0.647,0.437,1.068c0,0.412-0.148,0.766-0.444,1.062
		c-0.296,0.296-0.65,0.444-1.062,0.444s-0.765-0.148-1.061-0.444s-0.444-0.65-0.444-1.062c0-0.421,0.145-0.777,0.437-1.068
		C269.127,174.547,269.484,174.401,269.905,174.401z"/>
	<path d="M279.584,176.644l-1.174,4.094h2.363l-0.256,0.948h-2.348l-2.589,8.882c-0.281,0.953-0.421,1.57-0.421,1.852
		c0,0.17,0.04,0.301,0.121,0.391c0.08,0.091,0.175,0.136,0.286,0.136c0.251,0,0.582-0.176,0.994-0.526
		c0.241-0.201,0.778-0.818,1.611-1.852l0.497,0.376c-0.923,1.345-1.796,2.293-2.619,2.845c-0.562,0.382-1.129,0.572-1.701,0.572
		c-0.441,0-0.803-0.138-1.083-0.414c-0.281-0.275-0.421-0.63-0.421-1.062c0-0.542,0.16-1.369,0.481-2.483l2.514-8.716h-2.273
		l0.151-0.587c1.104-0.301,2.022-0.75,2.754-1.347c0.732-0.598,1.551-1.634,2.454-3.109H279.584z"/>
	<path d="M289.188,172.595l-4.23,14.616c1.826-2.749,3.251-4.576,4.275-5.479c1.024-0.902,2.002-1.354,2.936-1.354
		c0.481,0,0.883,0.166,1.204,0.497s0.482,0.772,0.482,1.324c0,0.663-0.141,1.466-0.422,2.409l-1.836,6.307
		c-0.231,0.763-0.346,1.185-0.346,1.265c0,0.141,0.042,0.256,0.128,0.346c0.085,0.091,0.183,0.136,0.293,0.136
		c0.13,0,0.281-0.065,0.452-0.195c0.572-0.441,1.139-1.054,1.701-1.837l0.467,0.286c-0.341,0.532-0.815,1.116-1.423,1.754
		c-0.607,0.638-1.129,1.079-1.565,1.324c-0.437,0.246-0.826,0.369-1.167,0.369c-0.372,0-0.675-0.118-0.911-0.354
		c-0.236-0.236-0.354-0.54-0.354-0.911c0-0.441,0.176-1.265,0.527-2.469l1.731-6.021c0.22-0.753,0.331-1.345,0.331-1.776
		c0-0.201-0.063-0.361-0.188-0.482c-0.126-0.12-0.289-0.181-0.489-0.181c-0.292,0-0.623,0.111-0.994,0.332
		c-0.683,0.421-1.47,1.204-2.363,2.348c-0.241,0.312-1.044,1.565-2.409,3.764c-0.421,0.702-0.768,1.47-1.039,2.303L283.016,194
		h-2.258l4.952-17.221l0.527-1.866c0-0.261-0.108-0.492-0.323-0.692c-0.216-0.201-0.479-0.301-0.791-0.301
		c-0.181,0-0.457,0.03-0.828,0.09l-0.316,0.045v-0.587L289.188,172.595z"/>
</g>
<g>
	<path d="M90.937,202.375v10.758h5.981c1.552,0,2.589-0.233,3.111-0.702c0.695-0.615,1.084-1.699,1.164-3.252h0.743v9.474h-0.743
		c-0.188-1.325-0.375-2.174-0.562-2.549c-0.241-0.469-0.636-0.836-1.184-1.104c-0.549-0.267-1.392-0.401-2.529-0.401h-5.981v8.972
		c0,1.204,0.053,1.937,0.161,2.198c0.107,0.261,0.294,0.468,0.562,0.622c0.268,0.153,0.776,0.23,1.525,0.23H97.8
		c1.539,0,2.656-0.106,3.352-0.321c0.695-0.214,1.365-0.635,2.007-1.264c0.83-0.83,1.679-2.081,2.549-3.754h0.803l-2.349,6.824
		H83.189v-0.742h0.963c0.643,0,1.251-0.154,1.827-0.462c0.428-0.214,0.719-0.535,0.873-0.964c0.154-0.428,0.231-1.305,0.231-2.629
		v-17.682c0-1.727-0.174-2.79-0.522-3.191c-0.482-0.535-1.285-0.803-2.409-0.803h-0.963v-0.743h20.974l0.301,5.961h-0.783
		c-0.281-1.432-0.592-2.415-0.933-2.95c-0.341-0.535-0.847-0.943-1.516-1.225c-0.535-0.2-1.479-0.301-2.83-0.301H90.937z"/>
	<path d="M136.637,200.89v0.743c-0.963,0.174-1.693,0.481-2.188,0.923c-0.709,0.656-1.338,1.659-1.886,3.011l-9.494,23.161h-0.743
		l-10.196-23.462c-0.521-1.205-0.89-1.94-1.104-2.208c-0.335-0.415-0.746-0.739-1.234-0.974c-0.489-0.233-1.147-0.385-1.977-0.451
		v-0.743h11.119v0.743c-1.258,0.12-2.074,0.334-2.449,0.642c-0.375,0.309-0.562,0.703-0.562,1.185c0,0.669,0.308,1.713,0.923,3.131
		l6.924,15.956l6.422-15.755c0.629-1.553,0.943-2.63,0.943-3.231c0-0.389-0.194-0.76-0.582-1.114s-1.043-0.605-1.967-0.753
		c-0.067-0.013-0.181-0.033-0.341-0.06v-0.743H136.637z"/>
	<path d="M145.729,202.375v10.758h5.981c1.552,0,2.589-0.233,3.111-0.702c0.695-0.615,1.084-1.699,1.164-3.252h0.743v9.474h-0.743
		c-0.188-1.325-0.375-2.174-0.562-2.549c-0.241-0.469-0.636-0.836-1.184-1.104c-0.549-0.267-1.392-0.401-2.529-0.401h-5.981v8.972
		c0,1.204,0.053,1.937,0.161,2.198c0.107,0.261,0.294,0.468,0.562,0.622c0.268,0.153,0.776,0.23,1.525,0.23h4.616
		c1.539,0,2.656-0.106,3.352-0.321c0.695-0.214,1.365-0.635,2.007-1.264c0.83-0.83,1.679-2.081,2.549-3.754h0.803l-2.349,6.824
		h-20.974v-0.742h0.963c0.643,0,1.251-0.154,1.827-0.462c0.428-0.214,0.719-0.535,0.873-0.964c0.154-0.428,0.231-1.305,0.231-2.629
		v-17.682c0-1.727-0.174-2.79-0.522-3.191c-0.482-0.535-1.285-0.803-2.409-0.803h-0.963v-0.743h20.974l0.301,5.961h-0.783
		c-0.281-1.432-0.592-2.415-0.933-2.95c-0.341-0.535-0.847-0.943-1.516-1.225c-0.535-0.2-1.479-0.301-2.83-0.301H145.729z"/>
	<path d="M190.024,228.105h-7.265l-9.212-12.725c-0.683,0.027-1.238,0.04-1.666,0.04c-0.174,0-0.361-0.003-0.562-0.01
		s-0.408-0.017-0.622-0.03v7.907c0,1.713,0.187,2.777,0.562,3.191c0.508,0.589,1.271,0.884,2.288,0.884h1.063v0.742h-11.661v-0.742
		h1.023c1.15,0,1.974-0.375,2.469-1.124c0.281-0.415,0.421-1.398,0.421-2.951v-17.581c0-1.713-0.188-2.776-0.562-3.191
		c-0.522-0.589-1.298-0.883-2.328-0.883h-1.023v-0.743h9.915c2.89,0,5.021,0.211,6.393,0.633c1.372,0.421,2.536,1.197,3.492,2.328
		s1.435,2.479,1.435,4.044c0,1.673-0.545,3.124-1.636,4.355c-1.091,1.231-2.78,2.101-5.068,2.609l5.62,7.807
		c1.285,1.794,2.389,2.984,3.312,3.573c0.923,0.589,2.127,0.963,3.612,1.124V228.105z M170.696,214.116
		c0.254,0,0.475,0.004,0.662,0.01c0.188,0.007,0.341,0.011,0.462,0.011c2.596,0,4.552-0.563,5.871-1.687
		c1.318-1.124,1.977-2.556,1.977-4.295c0-1.699-0.532-3.081-1.596-4.145c-1.064-1.063-2.472-1.596-4.225-1.596
		c-0.776,0-1.826,0.128-3.151,0.382V214.116z"/>
	<path d="M206.984,200.89h9.493v0.743h-0.521c-0.348,0-0.856,0.153-1.525,0.461c-0.669,0.309-1.278,0.75-1.827,1.325
		c-0.549,0.575-1.224,1.512-2.027,2.81l-6.563,10.336v6.824c0,1.673,0.188,2.717,0.562,3.131c0.508,0.563,1.312,0.844,2.409,0.844
		h0.883v0.742h-11.561v-0.742h0.963c1.151,0,1.967-0.349,2.449-1.044c0.294-0.428,0.441-1.405,0.441-2.931v-6.442l-7.466-11.4
		c-0.883-1.338-1.482-2.174-1.796-2.509c-0.314-0.334-0.967-0.735-1.957-1.204c-0.268-0.134-0.656-0.2-1.164-0.2v-0.743h11.641
		v0.743h-0.603c-0.629,0-1.208,0.147-1.736,0.441c-0.529,0.294-0.793,0.736-0.793,1.324c0,0.482,0.408,1.352,1.225,2.609l5.68,8.771
		l5.339-8.389c0.803-1.258,1.204-2.194,1.204-2.811c0-0.374-0.097-0.709-0.291-1.003c-0.194-0.295-0.472-0.525-0.833-0.692
		c-0.361-0.168-0.903-0.251-1.625-0.251V200.89z"/>
	<path d="M232.112,200.268c3.533,0,6.593,1.342,9.182,4.024c2.589,2.683,3.884,6.031,3.884,10.045c0,4.135-1.305,7.566-3.914,10.296
		c-2.609,2.73-5.767,4.095-9.473,4.095c-3.747,0-6.895-1.331-9.443-3.994c-2.549-2.662-3.823-6.107-3.823-10.336
		c0-4.322,1.472-7.848,4.415-10.577C225.496,201.452,228.553,200.268,232.112,200.268z M231.731,201.732
		c-2.436,0-4.389,0.903-5.86,2.71c-1.833,2.248-2.75,5.539-2.75,9.875c0,4.442,0.95,7.86,2.85,10.256
		c1.458,1.819,3.385,2.729,5.78,2.729c2.556,0,4.667-0.997,6.333-2.99c1.666-1.994,2.499-5.139,2.499-9.434
		c0-4.656-0.917-8.129-2.75-10.416C236.36,202.643,234.327,201.732,231.731,201.732z"/>
	<path d="M246.222,200.89h7.386l16.638,20.412v-15.695c0-1.673-0.188-2.716-0.562-3.131c-0.495-0.563-1.278-0.843-2.348-0.843
		h-0.943v-0.743h9.473v0.743h-0.963c-1.151,0-1.967,0.348-2.448,1.043c-0.294,0.429-0.442,1.405-0.442,2.931v22.94h-0.722
		l-17.943-21.917v16.759c0,1.673,0.181,2.717,0.542,3.131c0.508,0.563,1.291,0.844,2.348,0.844h0.963v0.742h-9.473v-0.742h0.943
		c1.164,0,1.987-0.349,2.469-1.044c0.294-0.428,0.441-1.405,0.441-2.931v-18.926c-0.79-0.924-1.388-1.532-1.796-1.827
		c-0.408-0.294-1.007-0.568-1.796-0.822c-0.388-0.121-0.977-0.181-1.766-0.181V200.89z"/>
	<path d="M285.038,202.375v10.758h5.981c1.552,0,2.589-0.233,3.111-0.702c0.695-0.615,1.084-1.699,1.164-3.252h0.743v9.474h-0.743
		c-0.188-1.325-0.375-2.174-0.562-2.549c-0.241-0.469-0.636-0.836-1.184-1.104c-0.549-0.267-1.392-0.401-2.529-0.401h-5.981v8.972
		c0,1.204,0.053,1.937,0.161,2.198c0.107,0.261,0.294,0.468,0.562,0.622c0.268,0.153,0.776,0.23,1.525,0.23h4.616
		c1.539,0,2.656-0.106,3.352-0.321c0.695-0.214,1.365-0.635,2.007-1.264c0.83-0.83,1.679-2.081,2.549-3.754h0.803l-2.349,6.824
		h-20.974v-0.742h0.963c0.643,0,1.251-0.154,1.827-0.462c0.428-0.214,0.719-0.535,0.873-0.964c0.154-0.428,0.231-1.305,0.231-2.629
		v-17.682c0-1.727-0.174-2.79-0.522-3.191c-0.482-0.535-1.285-0.803-2.409-0.803h-0.963v-0.743h20.974l0.301,5.961h-0.783
		c-0.281-1.432-0.592-2.415-0.933-2.95c-0.341-0.535-0.847-0.943-1.516-1.225c-0.535-0.2-1.479-0.301-2.83-0.301H285.038z"/>
</g>
<g>
	<path d="M314.021,251.979v-1.063h0.959c0.838,0,1.481-0.178,1.929-0.532c0.448-0.354,0.778-0.837,0.992-1.45
		c0.128-0.402,0.192-1.609,0.192-3.62v-25.626c0-1.992-0.079-3.237-0.235-3.735s-0.473-0.934-0.949-1.307
		c-0.476-0.374-1.119-0.561-1.929-0.561h-0.959v-1.063h12.941c3.454,0,6.232,0.632,8.336,1.896c2.572,1.552,4.523,3.897,5.852,7.039
		c1.329,3.141,1.994,6.693,1.994,10.658c0,2.739-0.327,5.263-0.981,7.57s-1.5,4.214-2.537,5.717c-1.038,1.504-2.235,2.71-3.592,3.62
		c-1.357,0.909-3.017,1.613-4.978,2.111c-0.867,0.229-2.231,0.345-4.093,0.345H314.021z M325.044,215.235v30.396
		c0,1.608,0.057,2.595,0.17,2.959c0.114,0.363,0.306,0.642,0.576,0.833c0.384,0.287,0.938,0.431,1.663,0.431
		c2.374,0,4.186-1.092,5.437-3.275c1.706-2.949,2.558-7.526,2.558-13.732c0-4.999-0.583-8.992-1.748-11.979
		c-0.924-2.337-2.111-3.926-3.561-4.77C329.116,215.504,327.417,215.216,325.044,215.235z"/>
	<path d="M372.522,213.023v10.543h-0.767c-0.455-2.432-0.96-4.18-1.515-5.243c-0.554-1.063-1.314-1.91-2.281-2.542
		c-0.54-0.345-1.485-0.518-2.835-0.518h-2.153v30.051c0,1.992,0.081,3.237,0.245,3.734c0.163,0.499,0.483,0.934,0.959,1.308
		c0.477,0.373,1.127,0.561,1.951,0.561h0.959v1.063h-15.137v-1.063h0.959c0.839,0,1.514-0.201,2.025-0.604
		c0.37-0.269,0.661-0.728,0.874-1.379c0.156-0.46,0.235-1.667,0.235-3.62v-30.051h-2.09c-1.947,0-3.361,0.556-4.242,1.666
		c-1.237,1.552-2.019,3.764-2.346,6.637h-0.81v-10.543H372.522z"/>
	<path d="M375.124,213.023h14.924v1.063h-0.746c-1.123,0-1.895,0.158-2.313,0.474c-0.419,0.316-0.718,0.752-0.896,1.308
		s-0.267,1.944-0.267,4.166v19.076c0,3.485,0.195,5.793,0.587,6.923c0.391,1.131,1.034,2.069,1.93,2.815
		c0.895,0.747,2.025,1.121,3.39,1.121c1.563,0,2.896-0.475,3.997-1.423c1.102-0.947,1.926-2.255,2.474-3.921
		c0.547-1.666,0.82-4.568,0.82-8.705v-15.887c0-1.743-0.135-2.988-0.405-3.735c-0.27-0.747-0.611-1.264-1.023-1.551
		c-0.639-0.44-1.542-0.661-2.707-0.661v-1.063h9.999v1.063h-0.597c-0.811,0-1.485,0.221-2.025,0.661
		c-0.541,0.44-0.932,1.102-1.173,1.982c-0.185,0.612-0.277,1.714-0.277,3.304v14.795c0,4.578-0.224,7.882-0.672,9.912
		c-0.447,2.03-1.538,3.897-3.272,5.602s-4.101,2.557-7.1,2.557c-2.502,0-4.435-0.45-5.799-1.35
		c-1.862-1.226-3.177-2.797-3.944-4.712s-1.151-4.491-1.151-7.728v-19.076c0-2.241-0.093-3.635-0.277-4.181
		s-0.504-0.981-0.959-1.307c-0.455-0.326-1.294-0.479-2.516-0.46V213.023z"/>
</g>
<g>
	<path d="M82.517,238.957h6.071v0.526h-0.299c-0.426,0-0.746,0.092-0.959,0.277c-0.213,0.185-0.32,0.414-0.32,0.689
		c0,0.369,0.156,0.881,0.469,1.535l3.17,6.568l2.914-7.194c0.161-0.389,0.242-0.772,0.242-1.151c0-0.171-0.033-0.299-0.1-0.384
		c-0.076-0.104-0.194-0.187-0.355-0.249c-0.161-0.062-0.445-0.092-0.853-0.092v-0.526h4.236v0.526
		c-0.351,0.038-0.621,0.113-0.811,0.228c-0.189,0.113-0.398,0.326-0.625,0.64c-0.085,0.133-0.247,0.497-0.483,1.095l-5.303,12.993
		c-0.512,1.261-1.182,2.214-2.012,2.858c-0.829,0.644-1.627,0.967-2.396,0.967c-0.559,0-1.019-0.162-1.379-0.483
		c-0.36-0.322-0.54-0.692-0.54-1.109c0-0.398,0.13-0.718,0.391-0.96c0.261-0.241,0.619-0.362,1.074-0.362
		c0.313,0,0.739,0.104,1.279,0.313c0.379,0.143,0.616,0.214,0.711,0.214c0.284,0,0.595-0.147,0.931-0.44
		c0.336-0.294,0.675-0.863,1.017-1.706l0.924-2.261l-4.677-9.824c-0.142-0.293-0.37-0.658-0.682-1.094
		c-0.237-0.332-0.432-0.555-0.583-0.669c-0.218-0.151-0.569-0.284-1.052-0.397V238.957z"/>
	<path d="M104.183,238.573c1.971,0,3.554,0.749,4.749,2.246c1.014,1.279,1.521,2.749,1.521,4.407c0,1.166-0.28,2.346-0.839,3.54
		s-1.329,2.095-2.31,2.701s-2.073,0.91-3.277,0.91c-1.962,0-3.521-0.782-4.677-2.346c-0.977-1.317-1.464-2.796-1.464-4.436
		c0-1.194,0.296-2.382,0.889-3.562c0.592-1.18,1.372-2.052,2.338-2.616C102.079,238.855,103.103,238.573,104.183,238.573z
		 M103.743,239.497c-0.502,0-1.007,0.149-1.514,0.448c-0.507,0.299-0.917,0.822-1.23,1.57c-0.313,0.749-0.469,1.711-0.469,2.887
		c0,1.896,0.377,3.53,1.13,4.904s1.746,2.062,2.979,2.062c0.919,0,1.678-0.379,2.274-1.138c0.597-0.758,0.896-2.061,0.896-3.909
		c0-2.313-0.498-4.132-1.493-5.459C105.643,239.952,104.785,239.497,103.743,239.497z"/>
	<path d="M123.788,238.957v7.891c0,1.507,0.036,2.429,0.107,2.765c0.071,0.337,0.185,0.571,0.341,0.704
		c0.157,0.133,0.339,0.199,0.547,0.199c0.294,0,0.625-0.081,0.995-0.242l0.199,0.498l-3.896,1.606h-0.64v-2.759
		c-1.118,1.214-1.971,1.977-2.559,2.289c-0.587,0.313-1.208,0.47-1.862,0.47c-0.73,0-1.362-0.211-1.898-0.633
		s-0.908-0.965-1.116-1.628c-0.208-0.663-0.313-1.602-0.313-2.815v-5.814c0-0.615-0.066-1.042-0.199-1.279
		c-0.133-0.236-0.33-0.419-0.59-0.547s-0.732-0.188-1.415-0.178v-0.526h4.563v8.715c0,1.213,0.211,2.01,0.633,2.389
		c0.421,0.379,0.931,0.568,1.528,0.568c0.407,0,0.87-0.128,1.386-0.384c0.516-0.256,1.13-0.744,1.841-1.465v-7.378
		c0-0.739-0.135-1.239-0.405-1.5c-0.27-0.261-0.832-0.4-1.685-0.419v-0.526H123.788z"/>
	<path d="M138.076,241.346c0.948-0.948,1.507-1.493,1.677-1.635c0.427-0.36,0.886-0.64,1.379-0.839
		c0.493-0.199,0.981-0.299,1.464-0.299c0.815,0,1.516,0.237,2.104,0.711c0.587,0.474,0.981,1.161,1.18,2.062
		c0.976-1.138,1.801-1.884,2.474-2.239s1.365-0.533,2.076-0.533c0.692,0,1.306,0.178,1.841,0.533
		c0.535,0.355,0.959,0.936,1.272,1.741c0.208,0.55,0.313,1.412,0.313,2.588v5.602c0,0.814,0.062,1.374,0.185,1.677
		c0.094,0.209,0.27,0.387,0.526,0.533c0.256,0.147,0.673,0.221,1.251,0.221v0.512h-6.426v-0.512h0.27
		c0.559,0,0.995-0.109,1.308-0.327c0.218-0.151,0.374-0.394,0.469-0.725c0.038-0.161,0.057-0.621,0.057-1.379v-5.602
		c0-1.062-0.128-1.811-0.384-2.246c-0.37-0.606-0.962-0.91-1.777-0.91c-0.502,0-1.007,0.126-1.514,0.377
		c-0.507,0.251-1.121,0.718-1.841,1.4l-0.028,0.156l0.028,0.611v6.213c0,0.891,0.05,1.445,0.149,1.663s0.287,0.4,0.562,0.547
		c0.275,0.147,0.744,0.221,1.407,0.221v0.512h-6.582v-0.512c0.72,0,1.215-0.085,1.485-0.256c0.271-0.171,0.458-0.427,0.562-0.768
		c0.047-0.161,0.071-0.631,0.071-1.407v-5.602c0-1.062-0.156-1.824-0.469-2.289c-0.417-0.606-1-0.91-1.749-0.91
		c-0.512,0-1.019,0.138-1.521,0.412c-0.787,0.418-1.394,0.887-1.82,1.408v6.98c0,0.853,0.059,1.407,0.178,1.663
		c0.118,0.256,0.293,0.447,0.526,0.575c0.232,0.128,0.704,0.192,1.415,0.192v0.512h-6.44v-0.512c0.597,0,1.014-0.064,1.251-0.192
		c0.237-0.128,0.417-0.331,0.54-0.611c0.123-0.279,0.185-0.821,0.185-1.627v-4.977c0-1.431-0.043-2.354-0.128-2.771
		c-0.066-0.313-0.171-0.528-0.313-0.647c-0.142-0.118-0.336-0.178-0.583-0.178c-0.265,0-0.583,0.071-0.952,0.214l-0.213-0.513
		l3.924-1.592h0.611V241.346z"/>
	<path d="M161.348,238.573v10.464c0,0.814,0.059,1.357,0.178,1.627c0.118,0.271,0.293,0.472,0.526,0.604s0.656,0.199,1.272,0.199
		v0.512h-6.326v-0.512c0.635,0,1.061-0.062,1.279-0.185c0.218-0.123,0.391-0.327,0.519-0.611s0.192-0.829,0.192-1.635v-5.019
		c0-1.412-0.043-2.327-0.128-2.744c-0.066-0.304-0.171-0.514-0.313-0.633c-0.142-0.118-0.336-0.178-0.583-0.178
		c-0.265,0-0.587,0.071-0.966,0.214l-0.199-0.513l3.924-1.592H161.348z M160.168,231.764c0.398,0,0.737,0.14,1.017,0.419
		c0.279,0.28,0.419,0.619,0.419,1.017c0,0.398-0.14,0.739-0.419,1.023c-0.28,0.284-0.618,0.427-1.017,0.427
		c-0.398,0-0.739-0.143-1.023-0.427s-0.426-0.625-0.426-1.023c0-0.397,0.14-0.736,0.419-1.017
		C159.417,231.903,159.761,231.764,160.168,231.764z"/>
	<path d="M168.428,247.231c-0.796-0.389-1.408-0.932-1.834-1.628c-0.427-0.697-0.64-1.467-0.64-2.311
		c0-1.289,0.485-2.397,1.457-3.326c0.971-0.929,2.215-1.394,3.732-1.394c1.241,0,2.317,0.304,3.227,0.91h2.758
		c0.408,0,0.645,0.012,0.711,0.035s0.114,0.064,0.142,0.121c0.057,0.085,0.085,0.237,0.085,0.455c0,0.246-0.024,0.417-0.071,0.512
		c-0.029,0.047-0.079,0.085-0.149,0.113c-0.071,0.028-0.311,0.043-0.718,0.043h-1.691c0.531,0.683,0.796,1.555,0.796,2.616
		c0,1.213-0.464,2.251-1.393,3.113c-0.929,0.862-2.175,1.293-3.739,1.293c-0.645,0-1.303-0.094-1.976-0.284
		c-0.417,0.36-0.699,0.676-0.846,0.945c-0.147,0.271-0.22,0.5-0.22,0.689c0,0.162,0.078,0.318,0.234,0.47s0.462,0.261,0.917,0.327
		c0.265,0.038,0.929,0.07,1.99,0.1c1.953,0.047,3.218,0.113,3.796,0.198c0.881,0.124,1.585,0.45,2.111,0.981
		s0.789,1.185,0.789,1.962c0,1.07-0.502,2.075-1.507,3.014c-1.479,1.384-3.407,2.076-5.786,2.076c-1.829,0-3.374-0.413-4.634-1.237
		c-0.711-0.474-1.066-0.967-1.066-1.479c0-0.228,0.052-0.455,0.156-0.683c0.161-0.351,0.493-0.839,0.995-1.464
		c0.066-0.086,0.55-0.598,1.45-1.535c-0.493-0.294-0.841-0.557-1.045-0.789s-0.306-0.495-0.306-0.789
		c0-0.332,0.135-0.721,0.405-1.166S167.452,248.046,168.428,247.231z M168.286,251.979c-0.446,0.483-0.782,0.934-1.01,1.351
		c-0.227,0.417-0.341,0.801-0.341,1.151c0,0.455,0.274,0.854,0.824,1.194c0.948,0.588,2.317,0.882,4.109,0.882
		c1.706,0,2.964-0.302,3.774-0.903c0.81-0.602,1.215-1.244,1.215-1.926c0-0.493-0.242-0.844-0.725-1.053
		c-0.493-0.208-1.469-0.332-2.928-0.369C171.072,252.25,169.433,252.141,168.286,251.979z M170.902,239.256
		c-0.702,0-1.289,0.279-1.763,0.839c-0.474,0.559-0.711,1.417-0.711,2.573c0,1.497,0.322,2.658,0.967,3.482
		c0.493,0.626,1.118,0.938,1.876,0.938c0.72,0,1.313-0.27,1.777-0.811c0.464-0.54,0.697-1.388,0.697-2.545
		c0-1.507-0.327-2.687-0.981-3.539C172.281,239.568,171.66,239.256,170.902,239.256z"/>
	<path d="M183.327,231.764v9.525c1.052-1.156,1.886-1.898,2.502-2.226c0.616-0.327,1.232-0.49,1.848-0.49
		c0.739,0,1.374,0.204,1.905,0.611s0.924,1.047,1.18,1.919c0.18,0.606,0.27,1.716,0.27,3.327v4.606c0,0.824,0.066,1.388,0.199,1.691
		c0.095,0.228,0.256,0.407,0.483,0.54s0.644,0.199,1.251,0.199v0.512h-6.397v-0.512h0.298c0.606,0,1.028-0.093,1.266-0.277
		c0.237-0.185,0.402-0.457,0.498-0.817c0.028-0.151,0.042-0.597,0.042-1.336v-4.606c0-1.422-0.074-2.355-0.22-2.801
		c-0.147-0.445-0.382-0.779-0.704-1.002s-0.71-0.335-1.166-0.335c-0.464,0-0.948,0.124-1.45,0.37s-1.104,0.744-1.806,1.493v6.881
		c0,0.891,0.05,1.445,0.149,1.663s0.285,0.4,0.555,0.547c0.27,0.147,0.737,0.221,1.4,0.221v0.512h-6.455v-0.512
		c0.578,0,1.033-0.09,1.365-0.271c0.189-0.095,0.341-0.274,0.455-0.54c0.114-0.265,0.17-0.806,0.17-1.62v-11.786
		c0-1.487-0.035-2.402-0.106-2.744c-0.071-0.341-0.18-0.573-0.327-0.696s-0.343-0.185-0.59-0.185c-0.199,0-0.521,0.076-0.967,0.228
		l-0.199-0.498l3.895-1.592H183.327z"/>
	<path d="M197.842,234.678v4.279h3.042v0.995h-3.042v8.444c0,0.844,0.121,1.413,0.363,1.706c0.242,0.294,0.552,0.441,0.931,0.441
		c0.313,0,0.616-0.098,0.91-0.292c0.293-0.194,0.521-0.48,0.683-0.86h0.554c-0.332,0.93-0.801,1.628-1.407,2.098
		c-0.607,0.469-1.232,0.703-1.877,0.703c-0.436,0-0.862-0.12-1.279-0.362c-0.417-0.241-0.725-0.588-0.924-1.038
		c-0.199-0.449-0.299-1.144-0.299-2.082v-8.758h-2.062v-0.469c0.521-0.209,1.054-0.562,1.6-1.06c0.545-0.497,1.031-1.088,1.457-1.77
		c0.218-0.36,0.521-1.019,0.91-1.977H197.842z"/>
	<path d="M213.282,231.764v12.951l3.313-3.014c0.701-0.645,1.109-1.053,1.223-1.223c0.076-0.114,0.114-0.228,0.114-0.342
		c0-0.189-0.079-0.353-0.235-0.49c-0.156-0.137-0.415-0.216-0.775-0.234v-0.455h5.658v0.455c-0.777,0.019-1.424,0.138-1.94,0.355
		s-1.083,0.606-1.699,1.166l-3.341,3.085l3.341,4.222c0.929,1.166,1.554,1.905,1.876,2.218c0.455,0.446,0.853,0.735,1.194,0.867
		c0.237,0.095,0.649,0.143,1.237,0.143v0.512h-6.327v-0.512c0.36-0.01,0.604-0.064,0.732-0.163c0.128-0.1,0.192-0.239,0.192-0.42
		c0-0.218-0.19-0.568-0.569-1.052l-3.995-5.104v4.321c0,0.844,0.059,1.398,0.178,1.663c0.118,0.266,0.287,0.455,0.504,0.569
		c0.218,0.113,0.692,0.175,1.422,0.185v0.512h-6.625v-0.512c0.663,0,1.161-0.08,1.493-0.242c0.199-0.104,0.351-0.265,0.455-0.483
		c0.142-0.313,0.213-0.853,0.213-1.62v-11.856c0-1.507-0.034-2.429-0.1-2.766c-0.066-0.336-0.176-0.568-0.327-0.696
		c-0.152-0.128-0.351-0.192-0.597-0.192c-0.199,0-0.498,0.081-0.896,0.242l-0.242-0.498l3.867-1.592H213.282z"/>
	<path d="M227.782,241.331c1.526-1.839,2.981-2.758,4.365-2.758c0.711,0,1.322,0.178,1.834,0.533s0.919,0.94,1.223,1.756
		c0.208,0.568,0.313,1.44,0.313,2.615v5.56c0,0.824,0.066,1.384,0.199,1.677c0.104,0.237,0.272,0.422,0.504,0.555
		c0.232,0.133,0.661,0.199,1.287,0.199v0.512h-6.44v-0.512h0.27c0.606,0,1.031-0.093,1.272-0.277s0.41-0.457,0.505-0.817
		c0.038-0.143,0.057-0.588,0.057-1.336v-5.332c0-1.185-0.154-2.044-0.462-2.58c-0.308-0.535-0.827-0.803-1.557-0.803
		c-1.128,0-2.251,0.616-3.37,1.848v6.867c0,0.881,0.052,1.426,0.157,1.635c0.132,0.274,0.315,0.476,0.547,0.604
		c0.232,0.128,0.704,0.192,1.415,0.192v0.512h-6.44v-0.512h0.284c0.664,0,1.111-0.168,1.344-0.505
		c0.232-0.336,0.348-0.979,0.348-1.926v-4.834c0-1.563-0.036-2.517-0.106-2.857c-0.071-0.342-0.18-0.573-0.327-0.697
		c-0.147-0.123-0.344-0.185-0.59-0.185c-0.266,0-0.583,0.071-0.953,0.214l-0.213-0.513l3.924-1.592h0.611V241.331z"/>
	<path d="M244.914,238.573c1.971,0,3.554,0.749,4.749,2.246c1.014,1.279,1.521,2.749,1.521,4.407c0,1.166-0.28,2.346-0.839,3.54
		s-1.329,2.095-2.31,2.701s-2.073,0.91-3.277,0.91c-1.962,0-3.521-0.782-4.677-2.346c-0.977-1.317-1.464-2.796-1.464-4.436
		c0-1.194,0.296-2.382,0.889-3.562c0.592-1.18,1.372-2.052,2.338-2.616C242.81,238.855,243.833,238.573,244.914,238.573z
		 M244.473,239.497c-0.502,0-1.007,0.149-1.514,0.448c-0.507,0.299-0.917,0.822-1.23,1.57c-0.313,0.749-0.469,1.711-0.469,2.887
		c0,1.896,0.377,3.53,1.13,4.904s1.746,2.062,2.979,2.062c0.919,0,1.678-0.379,2.274-1.138c0.597-0.758,0.896-2.061,0.896-3.909
		c0-2.313-0.498-4.132-1.493-5.459C246.373,239.952,245.516,239.497,244.473,239.497z"/>
	<path d="M252.377,238.957h5.459v0.526c-0.502,0.038-0.832,0.128-0.988,0.27c-0.156,0.143-0.234,0.347-0.234,0.611
		c0,0.294,0.081,0.649,0.242,1.066l2.787,7.492l2.8-6.099l-0.739-1.92c-0.228-0.568-0.526-0.961-0.896-1.18
		c-0.208-0.133-0.597-0.213-1.166-0.241v-0.526h6.198v0.526c-0.683,0.028-1.166,0.151-1.45,0.369
		c-0.189,0.152-0.284,0.394-0.284,0.726c0,0.189,0.038,0.384,0.114,0.583l2.957,7.478l2.744-7.208
		c0.189-0.512,0.284-0.919,0.284-1.223c0-0.18-0.092-0.341-0.277-0.483c-0.185-0.142-0.547-0.223-1.088-0.241v-0.526h4.109v0.526
		c-0.825,0.123-1.431,0.682-1.82,1.678l-4.35,11.217h-0.583l-3.256-8.317l-3.795,8.317h-0.526l-4.18-10.947
		c-0.275-0.691-0.545-1.158-0.81-1.4c-0.266-0.241-0.683-0.424-1.251-0.547V238.957z"/>
	<path d="M285.9,238.573v10.464c0,0.814,0.059,1.357,0.178,1.627c0.118,0.271,0.293,0.472,0.526,0.604s0.656,0.199,1.272,0.199
		v0.512h-6.326v-0.512c0.635,0,1.061-0.062,1.279-0.185c0.218-0.123,0.391-0.327,0.519-0.611s0.192-0.829,0.192-1.635v-5.019
		c0-1.412-0.043-2.327-0.128-2.744c-0.066-0.304-0.171-0.514-0.313-0.633c-0.142-0.118-0.336-0.178-0.583-0.178
		c-0.265,0-0.587,0.071-0.966,0.214l-0.199-0.513l3.924-1.592H285.9z M284.72,231.764c0.398,0,0.737,0.14,1.017,0.419
		c0.279,0.28,0.419,0.619,0.419,1.017c0,0.398-0.14,0.739-0.419,1.023c-0.28,0.284-0.618,0.427-1.017,0.427
		c-0.398,0-0.739-0.143-1.023-0.427s-0.426-0.625-0.426-1.023c0-0.397,0.14-0.736,0.419-1.017
		C283.969,231.903,284.313,231.764,284.72,231.764z"/>
	<path d="M293.292,241.331c1.526-1.839,2.981-2.758,4.365-2.758c0.711,0,1.322,0.178,1.834,0.533s0.919,0.94,1.223,1.756
		c0.208,0.568,0.313,1.44,0.313,2.615v5.56c0,0.824,0.066,1.384,0.199,1.677c0.104,0.237,0.272,0.422,0.504,0.555
		c0.232,0.133,0.661,0.199,1.287,0.199v0.512h-6.44v-0.512h0.27c0.606,0,1.031-0.093,1.272-0.277s0.41-0.457,0.505-0.817
		c0.038-0.143,0.057-0.588,0.057-1.336v-5.332c0-1.185-0.154-2.044-0.462-2.58c-0.308-0.535-0.827-0.803-1.557-0.803
		c-1.128,0-2.251,0.616-3.37,1.848v6.867c0,0.881,0.052,1.426,0.157,1.635c0.132,0.274,0.315,0.476,0.547,0.604
		c0.232,0.128,0.704,0.192,1.415,0.192v0.512h-6.44v-0.512h0.284c0.664,0,1.111-0.168,1.344-0.505
		c0.232-0.336,0.348-0.979,0.348-1.926v-4.834c0-1.563-0.036-2.517-0.106-2.857c-0.071-0.342-0.18-0.573-0.327-0.697
		c-0.147-0.123-0.344-0.185-0.59-0.185c-0.266,0-0.583,0.071-0.953,0.214l-0.213-0.513l3.924-1.592h0.611V241.331z"/>
</g>
<g>
	<path d="M286.719,261.498l-4.094,14.236l-0.462,1.91c-0.042,0.182-0.063,0.336-0.063,0.462c0,0.224,0.07,0.42,0.21,0.588
		c0.112,0.126,0.252,0.188,0.42,0.188c0.182,0,0.42-0.111,0.714-0.336c0.546-0.405,1.273-1.245,2.184-2.52l0.714,0.504
		c-0.966,1.456-1.96,2.565-2.981,3.328c-1.022,0.763-1.967,1.145-2.834,1.145c-0.602,0-1.053-0.15-1.354-0.451
		c-0.301-0.301-0.451-0.738-0.451-1.313c0-0.686,0.154-1.589,0.462-2.709l0.441-1.574c-1.834,2.394-3.521,4.066-5.06,5.018
		c-1.106,0.687-2.191,1.029-3.254,1.029c-1.022,0-1.904-0.424-2.646-1.271c-0.742-0.847-1.113-2.012-1.113-3.495
		c0-2.227,0.668-4.574,2.005-7.045c1.337-2.47,3.034-4.447,5.092-5.932c1.609-1.176,3.128-1.764,4.556-1.764
		c0.854,0,1.564,0.225,2.131,0.672c0.566,0.448,0.997,1.19,1.291,2.227l0.756-2.395L286.719,261.498z M279.245,262.59
		c-0.896,0-1.848,0.42-2.855,1.26c-1.428,1.19-2.698,2.954-3.811,5.291c-1.112,2.338-1.669,4.451-1.669,6.342
		c0,0.951,0.238,1.704,0.714,2.257c0.476,0.553,1.021,0.829,1.638,0.829c1.525,0,3.184-1.127,4.976-3.381
		c2.394-2.995,3.59-6.067,3.59-9.217c0-1.189-0.231-2.051-0.693-2.582C280.672,262.856,280.042,262.59,279.245,262.59z"/>
	<path d="M297.532,261.498l-2.792,9.554c2.617-3.905,4.623-6.474,6.015-7.706c1.393-1.231,2.733-1.848,4.021-1.848
		c0.7,0,1.277,0.231,1.732,0.693c0.455,0.462,0.683,1.063,0.683,1.806c0,0.84-0.203,1.96-0.609,3.359l-2.562,8.839
		c-0.294,1.022-0.441,1.646-0.441,1.869c0,0.196,0.056,0.36,0.168,0.493c0.112,0.134,0.231,0.2,0.357,0.2
		c0.168,0,0.371-0.092,0.609-0.273c0.742-0.588,1.554-1.483,2.436-2.688l0.651,0.398c-1.302,1.862-2.534,3.191-3.695,3.99
		c-0.812,0.545-1.54,0.818-2.184,0.818c-0.518,0-0.931-0.157-1.239-0.473c-0.308-0.314-0.462-0.738-0.462-1.27
		c0-0.672,0.238-1.827,0.714-3.465l2.436-8.44c0.308-1.05,0.462-1.868,0.462-2.456c0-0.28-0.091-0.508-0.273-0.683
		c-0.182-0.175-0.406-0.263-0.672-0.263c-0.392,0-0.861,0.168-1.407,0.504c-1.036,0.63-2.114,1.669-3.233,3.118
		c-1.12,1.448-2.303,3.3-3.548,5.554c-0.658,1.189-1.204,2.491-1.638,3.904l-1.05,3.465h-3.149l3.821-13.144
		c0.448-1.582,0.672-2.533,0.672-2.855c0-0.308-0.123-0.577-0.368-0.809c-0.245-0.23-0.549-0.347-0.913-0.347
		c-0.168,0-0.462,0.028-0.882,0.084l-0.798,0.127l-0.126-0.756L297.532,261.498z"/>
	<path d="M316.408,261.498c0.476,0.813,0.805,1.572,0.987,2.278c0.182,0.707,0.364,2.097,0.546,4.168l0.924,10.33
		c0.84-1.008,2.058-2.604,3.653-4.787c0.77-1.063,1.722-2.513,2.855-4.347c0.686-1.119,1.105-1.903,1.26-2.352
		c0.084-0.224,0.126-0.454,0.126-0.692c0-0.154-0.049-0.28-0.147-0.378c-0.098-0.098-0.354-0.213-0.766-0.347
		c-0.413-0.133-0.756-0.378-1.029-0.734c-0.272-0.357-0.409-0.767-0.409-1.229c0-0.574,0.168-1.036,0.504-1.386
		s0.756-0.525,1.26-0.525c0.616,0,1.141,0.256,1.575,0.767c0.434,0.512,0.651,1.215,0.651,2.11c0,1.105-0.378,2.369-1.134,3.79
		s-2.212,3.601-4.367,6.54c-2.156,2.939-4.766,6.145-7.832,9.616c-2.114,2.394-3.682,3.901-4.703,4.524s-1.896,0.935-2.625,0.935
		c-0.434,0-0.815-0.165-1.145-0.493c-0.329-0.329-0.493-0.711-0.493-1.145c0-0.546,0.228-1.043,0.683-1.49
		c0.455-0.448,0.948-0.672,1.48-0.672c0.28,0,0.511,0.063,0.693,0.188c0.112,0.07,0.234,0.27,0.367,0.599
		c0.133,0.328,0.255,0.549,0.368,0.661c0.07,0.07,0.154,0.104,0.252,0.104c0.084,0,0.231-0.069,0.441-0.209
		c0.77-0.477,1.666-1.232,2.688-2.268c1.344-1.372,2.337-2.492,2.981-3.359l-1.176-13.313c-0.196-2.197-0.49-3.534-0.882-4.01
		c-0.392-0.476-1.05-0.714-1.974-0.714c-0.294,0-0.819,0.042-1.575,0.126l-0.189-0.777L316.408,261.498z"/>
	<path d="M339.797,256.291l-1.638,5.711h3.296l-0.357,1.323h-3.275l-3.611,12.388c-0.392,1.33-0.588,2.19-0.588,2.582
		c0,0.238,0.056,0.42,0.168,0.547c0.112,0.125,0.245,0.188,0.399,0.188c0.35,0,0.812-0.245,1.386-0.735
		c0.336-0.279,1.084-1.141,2.247-2.582l0.693,0.525c-1.288,1.875-2.506,3.198-3.653,3.968c-0.784,0.532-1.575,0.798-2.373,0.798
		c-0.616,0-1.12-0.192-1.512-0.577c-0.392-0.385-0.588-0.879-0.588-1.48c0-0.756,0.224-1.911,0.672-3.464l3.506-12.157h-3.17
		l0.21-0.819c1.54-0.42,2.82-1.046,3.842-1.879c1.021-0.832,2.163-2.277,3.422-4.336H339.797z"/>
	<path d="M350.463,261.498l-4.157,14.719c-0.28,0.994-0.42,1.589-0.42,1.785c0,0.224,0.066,0.405,0.2,0.545
		c0.133,0.141,0.29,0.211,0.472,0.211c0.21,0,0.462-0.112,0.756-0.336c0.798-0.631,1.603-1.526,2.415-2.688l0.735,0.482
		c-0.952,1.456-2.072,2.681-3.359,3.674c-0.952,0.742-1.862,1.113-2.729,1.113c-0.574,0-1.043-0.172-1.407-0.515
		c-0.364-0.343-0.546-0.773-0.546-1.291s0.175-1.379,0.525-2.583l2.729-9.406c0.448-1.539,0.672-2.505,0.672-2.896
		c0-0.309-0.108-0.561-0.326-0.756c-0.217-0.196-0.514-0.295-0.892-0.295c-0.308,0-0.945,0.077-1.911,0.231v-0.819L350.463,261.498z
		 M350.19,253.163c0.588,0,1.085,0.203,1.491,0.608c0.405,0.406,0.608,0.903,0.608,1.491c0,0.574-0.206,1.067-0.619,1.48
		s-0.906,0.619-1.48,0.619s-1.067-0.206-1.48-0.619c-0.413-0.413-0.619-0.906-0.619-1.48c0-0.588,0.203-1.085,0.609-1.491
		C349.105,253.366,349.603,253.163,350.19,253.163z"/>
	<path d="M361.844,261.498l-2.729,9.47c1.218-2.226,2.253-3.898,3.107-5.019c1.329-1.735,2.624-2.995,3.884-3.779
		c0.742-0.447,1.519-0.672,2.331-0.672c0.699,0,1.28,0.225,1.742,0.672c0.462,0.448,0.693,1.022,0.693,1.723
		c0,0.686-0.161,1.581-0.483,2.688l-1.49,5.332c2.281-4.269,4.443-7.264,6.487-8.986c1.134-0.951,2.254-1.428,3.359-1.428
		c0.644,0,1.173,0.221,1.585,0.662c0.413,0.44,0.62,1.123,0.62,2.047c0,0.812-0.126,1.673-0.378,2.582l-2.31,8.168
		c-0.504,1.777-0.756,2.765-0.756,2.961c0,0.195,0.063,0.363,0.188,0.504c0.084,0.098,0.196,0.146,0.336,0.146
		s0.385-0.133,0.735-0.398c0.798-0.616,1.546-1.428,2.246-2.436l0.693,0.44c-0.351,0.56-0.97,1.33-1.858,2.31
		s-1.648,1.645-2.278,1.994c-0.63,0.351-1.211,0.525-1.742,0.525c-0.49,0-0.899-0.168-1.229-0.504s-0.493-0.749-0.493-1.238
		c0-0.672,0.286-2.023,0.86-4.053l1.911-6.74c0.434-1.553,0.664-2.414,0.692-2.582c0.042-0.266,0.063-0.525,0.063-0.777
		c0-0.35-0.077-0.622-0.231-0.818c-0.168-0.196-0.356-0.294-0.566-0.294c-0.588,0-1.211,0.301-1.869,0.903
		c-1.932,1.777-3.737,4.269-5.417,7.475c-1.105,2.113-2.142,4.821-3.107,8.125h-3.17l3.59-12.703
		c0.392-1.371,0.588-2.288,0.588-2.75c0-0.378-0.077-0.658-0.23-0.84c-0.154-0.182-0.344-0.273-0.567-0.273
		c-0.462,0-0.952,0.168-1.47,0.504c-0.84,0.547-1.921,1.715-3.244,3.507c-1.322,1.792-2.348,3.507-3.075,5.144
		c-0.351,0.771-1.184,3.241-2.499,7.412h-3.107l3.885-13.605l0.504-1.764c0.098-0.266,0.146-0.462,0.146-0.588
		c0-0.308-0.14-0.584-0.42-0.829s-0.637-0.368-1.07-0.368c-0.183,0-0.687,0.084-1.512,0.252l-0.189-0.776L361.844,261.498z"/>
	<path d="M388.697,272.584c-0.098,0.7-0.146,1.281-0.146,1.743c0,1.246,0.44,2.307,1.322,3.181c0.882,0.875,1.953,1.313,3.213,1.313
		c1.008,0,1.977-0.206,2.907-0.619c0.932-0.413,2.313-1.326,4.147-2.74l0.44,0.609c-3.317,3.289-6.48,4.934-9.49,4.934
		c-2.044,0-3.583-0.644-4.619-1.932s-1.554-2.709-1.554-4.262c0-2.086,0.644-4.221,1.932-6.404s2.904-3.881,4.851-5.092
		c1.945-1.21,3.947-1.816,6.005-1.816c1.483,0,2.582,0.302,3.296,0.903s1.071,1.315,1.071,2.142c0,1.162-0.462,2.274-1.386,3.338
		c-1.218,1.387-3.01,2.506-5.375,3.359C393.743,271.814,391.539,272.263,388.697,272.584z M388.845,271.556
		c2.071-0.238,3.758-0.644,5.06-1.218c1.722-0.77,3.013-1.69,3.874-2.761c0.86-1.071,1.291-2.089,1.291-3.056
		c0-0.588-0.186-1.063-0.557-1.428c-0.37-0.363-0.899-0.545-1.585-0.545c-1.428,0-2.942,0.759-4.546,2.277
		C390.779,266.346,389.601,268.588,388.845,271.556z"/>
</g>
<g>
	<path d="M221.18,291.583v11.19h5.186c1.189,0,2.061-0.262,2.614-0.787c0.553-0.524,0.92-1.564,1.102-3.117h0.777v9.637h-0.777
		c-0.014-1.105-0.158-1.918-0.43-2.436c-0.273-0.518-0.651-0.906-1.134-1.165c-0.483-0.259-1.201-0.389-2.152-0.389h-5.186v8.944
		c0,1.441,0.091,2.394,0.273,2.855c0.14,0.35,0.434,0.65,0.882,0.902c0.616,0.336,1.26,0.504,1.932,0.504h1.029v0.777h-12.22v-0.777
		h1.008c1.176,0,2.029-0.343,2.562-1.028c0.336-0.448,0.504-1.525,0.504-3.233v-18.393c0-1.441-0.091-2.394-0.273-2.855
		c-0.14-0.35-0.427-0.65-0.861-0.902c-0.602-0.336-1.246-0.504-1.932-0.504h-1.008v-0.777h21.185l0.273,6.257h-0.735
		c-0.364-1.33-0.787-2.306-1.271-2.929c-0.482-0.623-1.078-1.074-1.784-1.354c-0.707-0.28-1.803-0.42-3.286-0.42H221.18z"/>
	<path d="M252.023,289.379c3.695,0,6.897,1.403,9.605,4.209c2.709,2.807,4.063,6.31,4.063,10.509c0,4.325-1.365,7.915-4.094,10.771
		s-6.033,4.283-9.91,4.283c-3.919,0-7.212-1.393-9.879-4.178c-2.666-2.785-4-6.39-4-10.813c0-4.521,1.54-8.21,4.619-11.065
		C245.101,290.617,248.299,289.379,252.023,289.379z M251.624,290.911c-2.548,0-4.591,0.944-6.131,2.835
		c-1.918,2.352-2.876,5.795-2.876,10.33c0,4.646,0.994,8.223,2.981,10.729c1.525,1.903,3.541,2.855,6.047,2.855
		c2.673,0,4.882-1.043,6.624-3.129c1.743-2.085,2.614-5.375,2.614-9.867c0-4.871-0.959-8.504-2.876-10.897
		C256.467,291.863,254.339,290.911,251.624,290.911z"/>
	<path d="M296.409,318.5h-7.601l-9.637-13.312c-0.714,0.028-1.295,0.042-1.743,0.042c-0.182,0-0.378-0.003-0.588-0.011
		c-0.21-0.007-0.427-0.018-0.651-0.031v8.272c0,1.792,0.196,2.904,0.588,3.338c0.532,0.616,1.33,0.924,2.394,0.924h1.113v0.777
		h-12.199v-0.777h1.071c1.204,0,2.064-0.392,2.583-1.176c0.294-0.434,0.441-1.462,0.441-3.086v-18.393
		c0-1.792-0.196-2.904-0.588-3.338c-0.546-0.616-1.358-0.924-2.436-0.924h-1.071v-0.777h10.372c3.023,0,5.252,0.221,6.687,0.661
		c1.435,0.441,2.653,1.253,3.653,2.436c1.001,1.184,1.501,2.593,1.501,4.231c0,1.749-0.57,3.268-1.711,4.556
		c-1.141,1.288-2.908,2.197-5.301,2.729l5.879,8.168c1.344,1.875,2.499,3.121,3.464,3.736c0.966,0.616,2.226,1.008,3.779,1.176
		V318.5z M276.189,303.865c0.266,0,0.497,0.004,0.693,0.011c0.196,0.008,0.357,0.011,0.483,0.011c2.715,0,4.763-0.588,6.141-1.764
		c1.379-1.176,2.068-2.674,2.068-4.493c0-1.777-0.557-3.223-1.669-4.336c-1.113-1.112-2.586-1.669-4.42-1.669
		c-0.812,0-1.911,0.133-3.296,0.398V303.865z"/>
	<path d="M305.017,291.583v11.254h6.257c1.624,0,2.708-0.245,3.254-0.735c0.728-0.644,1.134-1.777,1.218-3.4h0.777v9.91h-0.777
		c-0.196-1.387-0.392-2.275-0.588-2.667c-0.252-0.49-0.665-0.875-1.239-1.155c-0.574-0.279-1.456-0.42-2.646-0.42h-6.257v9.386
		c0,1.26,0.056,2.026,0.168,2.299c0.112,0.273,0.308,0.49,0.588,0.651c0.28,0.161,0.812,0.241,1.596,0.241h4.829
		c1.609,0,2.778-0.112,3.506-0.336c0.728-0.224,1.428-0.665,2.1-1.323c0.868-0.867,1.756-2.176,2.667-3.926h0.84l-2.457,7.139
		h-21.941v-0.777h1.008c0.672,0,1.309-0.16,1.911-0.482c0.448-0.224,0.752-0.56,0.914-1.008c0.161-0.448,0.241-1.365,0.241-2.75
		v-18.498c0-1.806-0.182-2.918-0.546-3.338c-0.504-0.561-1.344-0.84-2.52-0.84h-1.008v-0.777h21.941l0.315,6.236h-0.819
		c-0.294-1.498-0.62-2.527-0.976-3.087c-0.357-0.56-0.886-0.987-1.585-1.28c-0.56-0.211-1.547-0.315-2.96-0.315H305.017z"/>
	<path d="M352.825,290.029v0.777c-1.008,0.182-1.771,0.504-2.289,0.965c-0.742,0.687-1.399,1.736-1.973,3.15l-9.931,24.229h-0.777
		l-10.666-24.544c-0.546-1.26-0.931-2.029-1.155-2.31c-0.35-0.434-0.78-0.773-1.292-1.019c-0.511-0.244-1.2-0.402-2.068-0.472
		v-0.777h11.632v0.777c-1.316,0.125-2.17,0.35-2.562,0.672c-0.392,0.321-0.588,0.734-0.588,1.238c0,0.7,0.322,1.792,0.966,3.275
		l7.244,16.691l6.719-16.481c0.658-1.624,0.987-2.751,0.987-3.38c0-0.406-0.203-0.795-0.609-1.166
		c-0.406-0.37-1.092-0.633-2.058-0.787c-0.07-0.014-0.189-0.035-0.357-0.063v-0.777H352.825z"/>
	<path d="M362.336,291.583v11.254h6.257c1.624,0,2.709-0.245,3.255-0.735c0.728-0.644,1.134-1.777,1.218-3.4h0.776v9.91h-0.776
		c-0.196-1.387-0.393-2.275-0.588-2.667c-0.252-0.49-0.665-0.875-1.239-1.155c-0.574-0.279-1.456-0.42-2.646-0.42h-6.257v9.386
		c0,1.26,0.056,2.026,0.168,2.299c0.112,0.273,0.308,0.49,0.588,0.651s0.812,0.241,1.596,0.241h4.829
		c1.609,0,2.778-0.112,3.507-0.336c0.728-0.224,1.428-0.665,2.1-1.323c0.867-0.867,1.756-2.176,2.666-3.926h0.84l-2.456,7.139
		h-21.941v-0.777h1.008c0.672,0,1.309-0.16,1.911-0.482c0.447-0.224,0.752-0.56,0.913-1.008s0.241-1.365,0.241-2.75v-18.498
		c0-1.806-0.182-2.918-0.546-3.338c-0.504-0.561-1.344-0.84-2.52-0.84h-1.008v-0.777h21.941l0.314,6.236h-0.818
		c-0.294-1.498-0.62-2.527-0.977-3.087c-0.357-0.56-0.886-0.987-1.585-1.28c-0.561-0.211-1.547-0.315-2.961-0.315H362.336z"/>
	<path d="M408.675,318.5h-7.601l-9.638-13.312c-0.714,0.028-1.295,0.042-1.742,0.042c-0.183,0-0.378-0.003-0.588-0.011
		c-0.21-0.007-0.428-0.018-0.651-0.031v8.272c0,1.792,0.196,2.904,0.588,3.338c0.532,0.616,1.33,0.924,2.394,0.924h1.113v0.777
		h-12.199v-0.777h1.071c1.203,0,2.064-0.392,2.582-1.176c0.294-0.434,0.441-1.462,0.441-3.086v-18.393
		c0-1.792-0.196-2.904-0.588-3.338c-0.546-0.616-1.358-0.924-2.436-0.924h-1.071v-0.777h10.372c3.023,0,5.253,0.221,6.688,0.661
		c1.435,0.441,2.652,1.253,3.653,2.436c1.001,1.184,1.501,2.593,1.501,4.231c0,1.749-0.57,3.268-1.711,4.556
		s-2.908,2.197-5.302,2.729l5.879,8.168c1.344,1.875,2.499,3.121,3.465,3.736c0.966,0.616,2.226,1.008,3.779,1.176V318.5z
		 M388.455,303.865c0.266,0,0.497,0.004,0.693,0.011c0.195,0.008,0.356,0.011,0.482,0.011c2.716,0,4.763-0.588,6.142-1.764
		s2.068-2.674,2.068-4.493c0-1.777-0.557-3.223-1.67-4.336c-1.112-1.112-2.586-1.669-4.419-1.669c-0.813,0-1.911,0.133-3.297,0.398
		V303.865z"/>
</g>
<g>
	<path d="M88.092,363.319v-0.354c0.24-0.048,0.42-0.102,0.538-0.159s0.206-0.138,0.264-0.241c0.058-0.104,0.086-0.242,0.086-0.415
		c0-0.164-0.019-0.341-0.058-0.531c-0.039-0.189-0.094-0.402-0.166-0.639l-0.267-0.931h-3.364l-0.245,0.707
		c-0.125,0.356-0.207,0.626-0.246,0.809s-0.058,0.349-0.058,0.498c0,0.289,0.073,0.5,0.22,0.635
		c0.146,0.135,0.372,0.224,0.675,0.268v0.354H82.39v-0.354c0.269-0.044,0.504-0.2,0.704-0.47c0.2-0.269,0.394-0.654,0.581-1.154
		l3.01-7.99h1.141l2.454,8.048c0.115,0.375,0.218,0.662,0.307,0.858c0.089,0.198,0.196,0.352,0.321,0.463
		c0.125,0.11,0.296,0.192,0.513,0.245v0.354H88.092z M85.32,359.422h3.017l-1.371-4.656L85.32,359.422z"/>
	<path d="M97.468,363.103v1.523c0,0.313,0.011,0.546,0.032,0.7c0.022,0.153,0.061,0.275,0.116,0.364s0.135,0.162,0.238,0.22
		c0.104,0.059,0.271,0.111,0.501,0.159v0.354h-2.945v-0.354c0.173-0.048,0.314-0.098,0.422-0.147
		c0.108-0.051,0.191-0.126,0.249-0.225c0.058-0.099,0.096-0.231,0.115-0.4c0.019-0.168,0.029-0.392,0.029-0.671v-6.193
		c0-0.347-0.005-0.593-0.014-0.739c-0.01-0.147-0.029-0.269-0.058-0.365c-0.029-0.096-0.071-0.176-0.126-0.238
		c-0.056-0.063-0.13-0.115-0.224-0.158c-0.094-0.044-0.249-0.087-0.466-0.13v-0.383l1.696-0.065h0.44l-0.094,1.177l0.108,0.029
		c0.298-0.304,0.534-0.523,0.708-0.66c0.173-0.138,0.353-0.252,0.538-0.344c0.186-0.091,0.363-0.156,0.534-0.194
		c0.171-0.039,0.353-0.058,0.545-0.058c0.794,0,1.404,0.297,1.83,0.892c0.426,0.594,0.639,1.464,0.639,2.608
		c0,0.795-0.121,1.462-0.361,2.004c-0.241,0.541-0.591,0.947-1.05,1.22c-0.459,0.271-1.007,0.407-1.642,0.407
		c-0.356,0-0.679-0.03-0.967-0.09C97.974,363.284,97.709,363.204,97.468,363.103z M97.468,360.721c0,0.462,0.029,0.818,0.086,1.068
		c0.058,0.25,0.16,0.454,0.307,0.61c0.146,0.156,0.32,0.272,0.52,0.35s0.463,0.115,0.791,0.115c0.582,0,1.02-0.241,1.313-0.725
		c0.293-0.484,0.44-1.197,0.44-2.141c0-1.886-0.551-2.829-1.653-2.829c-0.27,0-0.502,0.042-0.697,0.126s-0.389,0.22-0.581,0.408
		c-0.192,0.188-0.329,0.369-0.408,0.545c-0.08,0.176-0.119,0.364-0.119,0.566V360.721z"/>
	<path d="M105.682,357.617l0.101,0.021c0.265-0.322,0.51-0.576,0.736-0.762c0.226-0.185,0.47-0.328,0.732-0.429
		c0.262-0.102,0.56-0.152,0.892-0.152c0.279,0,0.532,0.015,0.758,0.044V358h-0.815c-0.116-0.26-0.238-0.449-0.368-0.567
		c-0.13-0.117-0.308-0.177-0.534-0.177c-0.173,0-0.345,0.051-0.516,0.152c-0.171,0.101-0.335,0.247-0.495,0.439
		c-0.159,0.193-0.268,0.373-0.328,0.542c-0.061,0.168-0.09,0.368-0.09,0.599v2.526c0,0.438,0.026,0.74,0.08,0.906
		c0.053,0.166,0.141,0.287,0.263,0.364s0.307,0.137,0.552,0.181v0.354h-2.909v-0.354c0.183-0.058,0.314-0.108,0.393-0.151
		c0.08-0.044,0.148-0.104,0.206-0.181c0.058-0.077,0.101-0.195,0.13-0.354c0.029-0.159,0.043-0.407,0.043-0.744v-3.146
		c0-0.308-0.005-0.556-0.014-0.743c-0.01-0.188-0.043-0.339-0.101-0.451c-0.058-0.113-0.146-0.197-0.264-0.253
		c-0.118-0.056-0.285-0.103-0.501-0.141v-0.376l1.689-0.072h0.44L105.682,357.617z"/>
	<path d="M112.771,363.435c-1.001,0-1.765-0.295-2.292-0.884c-0.527-0.59-0.791-1.462-0.791-2.616c0-0.795,0.138-1.466,0.415-2.015
		c0.277-0.548,0.656-0.956,1.137-1.223c0.481-0.268,1.03-0.401,1.646-0.401c1.03,0,1.809,0.3,2.338,0.899
		c0.529,0.599,0.794,1.459,0.794,2.58c0,0.799-0.132,1.473-0.397,2.021c-0.265,0.549-0.64,0.959-1.126,1.231
		C114.01,363.299,113.435,363.435,112.771,363.435z M111.053,359.782c0,0.991,0.158,1.753,0.473,2.285
		c0.315,0.531,0.767,0.797,1.354,0.797c0.322,0,0.597-0.078,0.823-0.234s0.41-0.367,0.552-0.632s0.244-0.571,0.307-0.92
		s0.094-0.713,0.094-1.094c0-0.707-0.078-1.294-0.234-1.761s-0.369-0.81-0.639-1.028c-0.27-0.22-0.578-0.329-0.924-0.329
		c-0.583,0-1.029,0.253-1.339,0.758C111.208,358.13,111.053,358.849,111.053,359.782z"/>
	<path d="M119.433,363.183c0,0.673-0.07,1.212-0.209,1.616s-0.381,0.747-0.725,1.028c-0.344,0.282-0.824,0.512-1.44,0.689
		l-0.246-0.635c0.298-0.115,0.525-0.226,0.682-0.328c0.156-0.104,0.285-0.225,0.386-0.361s0.178-0.321,0.231-0.552
		c0.053-0.231,0.079-0.527,0.079-0.889v-5.362c0-0.376-0.007-0.645-0.021-0.809c-0.015-0.163-0.046-0.292-0.094-0.386
		c-0.048-0.095-0.123-0.17-0.224-0.228s-0.284-0.113-0.549-0.166v-0.383l1.689-0.065h0.44V363.183z M119.469,353.59v1.4h-1.321v-1.4
		H119.469z"/>
	<path d="M127.177,362.092c-0.308,0.323-0.591,0.575-0.848,0.759c-0.257,0.183-0.54,0.325-0.848,0.429s-0.647,0.155-1.018,0.155
		c-0.991,0-1.74-0.297-2.245-0.892c-0.505-0.594-0.758-1.471-0.758-2.631c0-0.717,0.129-1.35,0.386-1.898
		c0.257-0.548,0.625-0.972,1.101-1.27c0.476-0.299,1.025-0.448,1.646-0.448c0.486,0,0.9,0.077,1.242,0.231
		c0.341,0.154,0.614,0.364,0.819,0.632c0.205,0.267,0.363,0.604,0.477,1.01c0.113,0.407,0.177,0.938,0.191,1.592h-4.547v0.13
		c0,0.568,0.063,1.046,0.191,1.433c0.127,0.388,0.336,0.69,0.628,0.91c0.291,0.219,0.67,0.328,1.137,0.328
		c0.395,0,0.75-0.073,1.064-0.221c0.315-0.146,0.629-0.386,0.942-0.718L127.177,362.092z M125.965,359.162
		c-0.029-0.521-0.094-0.944-0.195-1.274c-0.101-0.329-0.252-0.582-0.455-0.758s-0.467-0.264-0.794-0.264
		c-0.496,0-0.892,0.199-1.188,0.596c-0.296,0.397-0.47,0.964-0.523,1.7H125.965z"/>
	<path d="M133.999,356.585v1.509h-0.917c-0.082-0.313-0.183-0.56-0.303-0.74c-0.121-0.181-0.26-0.307-0.419-0.379
		s-0.356-0.108-0.592-0.108c-0.337,0-0.635,0.108-0.895,0.325s-0.465,0.546-0.617,0.988c-0.151,0.443-0.228,0.984-0.228,1.624
		c0,0.409,0.029,0.783,0.087,1.123c0.058,0.339,0.156,0.629,0.296,0.869c0.14,0.241,0.325,0.429,0.556,0.563
		s0.517,0.202,0.859,0.202c0.332,0,0.641-0.065,0.928-0.195c0.286-0.13,0.583-0.358,0.891-0.686l0.412,0.477
		c-0.246,0.27-0.462,0.478-0.649,0.624c-0.188,0.147-0.389,0.27-0.603,0.368c-0.214,0.099-0.426,0.171-0.635,0.217
		c-0.209,0.046-0.437,0.068-0.682,0.068c-0.91,0-1.605-0.302-2.086-0.905c-0.481-0.604-0.722-1.477-0.722-2.617
		c0-0.712,0.135-1.344,0.404-1.895s0.647-0.976,1.133-1.273c0.486-0.299,1.046-0.448,1.682-0.448c0.395,0,0.759,0.023,1.094,0.069
		C133.326,356.41,133.662,356.484,133.999,356.585z"/>
	<path d="M134.706,356.78c0.241-0.039,0.436-0.106,0.584-0.202c0.149-0.097,0.266-0.221,0.35-0.372
		c0.084-0.151,0.15-0.342,0.199-0.57c0.048-0.229,0.099-0.562,0.151-1h1.025v1.783h2.332v0.729h-2.332v3.212
		c0,0.467,0.02,0.838,0.058,1.115c0.038,0.276,0.11,0.493,0.216,0.649s0.226,0.268,0.361,0.335c0.135,0.068,0.308,0.102,0.52,0.102
		c0.192,0,0.373-0.04,0.541-0.119s0.334-0.193,0.498-0.343l0.325,0.39c-0.341,0.332-0.665,0.572-0.971,0.722
		s-0.622,0.224-0.949,0.224c-0.621,0-1.083-0.184-1.386-0.552s-0.455-0.944-0.455-1.729v-4.006h-1.068V356.78z"/>
	<path d="M141.902,361.645v1.675h-1.458v-1.675H141.902z"/>
</g>
</svg>
