<?xml version="1.0" encoding="utf-8"?>
<!-- Generator: Adobe Illustrator 17.0.0, SVG Export Plug-In . SVG Version: 6.00 Build 0)  -->
<!DOCTYPE svg PUBLIC "-//W3C//DTD SVG 1.1//EN" "http://www.w3.org/Graphics/SVG/1.1/DTD/svg11.dtd">
<svg version="1.1" id="Layer_1" xmlns="http://www.w3.org/2000/svg" xmlns:xlink="http://www.w3.org/1999/xlink" x="0px" y="0px"
	 width="700px" height="400px" viewBox="0 0 700 400" enable-background="new 0 0 700 400" xml:space="preserve">
<polygon points="700,0 700,400 659.905,341.173 0,341.173 0,0 "/>
<path fill="#FFFFFF" stroke="#000000" stroke-miterlimit="10" d="M200.713,66.332v85.003c-10.988-7.326-24.21-11.569-38.414-11.569
	c-38.414,0-69.548,31.134-69.548,69.548c0,12.418,3.261,24.076,8.978,34.126l-27.694,54.137l54.137-27.694
	c10.05,5.718,21.708,8.978,34.126,8.978c38.414,0,69.548-31.134,69.548-69.548V66.332H200.713z M180.925,242.903l-2.323,1.161
	c-4.958,2.367-10.497,3.663-16.304,3.663c-10.586,0-20.235-4.288-27.158-11.256c-6.968-6.968-11.256-16.527-11.256-27.158
	c0-5.807,1.295-11.346,3.618-16.259l1.519-2.993c6.7-11.48,19.073-19.162,33.278-19.162c21.217,0,38.414,17.197,38.414,38.414
	C200.713,223.786,192.717,236.382,180.925,242.903z"/>
<path fill="#5D5D5D" d="M503.321,64.519c15,0,29.828,0,44.933,0c0,25.09,0,50.069,0,75.047c0.199,0.051,0.398,0.103,0.598,0.154
	c0.26-0.72,0.542-1.432,0.775-2.161c4.037-12.624,8.093-25.241,12.067-37.885c0.498-1.586,1.164-2.188,2.88-2.175
	c11.145,0.09,22.291,0.045,33.436,0.05c0.609,0,1.217,0.062,2.101,0.11c-1.315,4.337-2.581,8.52-3.852,12.702
	c-4.584,15.087-9.189,30.168-13.716,45.273c-0.339,1.131-0.418,2.513-0.124,3.645c7.326,28.278,14.718,56.538,22.102,84.8
	c0.33,1.261,0.695,2.513,1.103,3.985c-1.267,0.091-2.254,0.223-3.24,0.224c-12.461,0.014-24.923-0.036-37.384,0.056
	c-1.978,0.015-2.761-0.538-3.187-2.577c-4.167-19.992-8.449-39.958-12.705-59.93c-0.062-0.291-0.21-0.563-0.719-0.812
	c0,20.963,0,41.926,0,63.081c-15.185,0-30.061,0-45.069,0C503.321,186.961,503.321,125.853,503.321,64.519z"/>
<path fill="#5D5D5D" d="M425.236,248.212c-14.658,0-29.037,0-43.656,0c0-4.033,0-8.009,0-11.892
	c-2.602,2.906-5.024,5.85-7.704,8.536c-2.528,2.535-5.558,3.718-9.369,3.53c-6.486-0.32-13-0.168-19.5-0.067
	c-7.211,0.112-12.264-3.595-16.137-9.139c-2.891-4.138-4.244-9.048-4.387-13.983c-0.307-10.652-0.384-21.329-0.009-31.976
	c0.289-8.209,4.152-14.696,11.82-18.286c8.023-3.756,16.179-7.228,24.269-10.842c4.574-2.044,9.127-4.136,13.699-6.183
	c3.374-1.511,5.407-3.879,5.61-7.759c0.369-7.033,0.826-14.072-0.714-21.016c-0.988-4.455-4.413-6.286-8.782-5.062
	c-1.824,0.511-3.093,1.57-3.3,3.447c-0.398,3.602-0.798,7.22-0.878,10.839c-0.14,6.324-0.039,12.653-0.039,19.097
	c-14.116,0-28.019,0-42.31,0c0-1.013-0.048-2.056,0.008-3.093c0.424-7.938,0.534-15.911,1.384-23.804
	c1.377-12.796,9.327-20.957,20.151-26.79c6.859-3.696,14.306-5.343,21.994-5.853c10.855-0.721,21.692-0.475,32.099,3.1
	c11.175,3.839,19.79,10.768,22.949,22.587c1.499,5.606,2.086,11.595,2.155,17.422c0.412,34.969,0.555,69.942,0.78,104.914
	C425.372,246.618,425.291,247.299,425.236,248.212z M380.009,177.917c-2.906,2.56-5.412,4.613-7.734,6.856
	c-2.596,2.506-4.8,5.457-5.066,9.132c-0.489,6.758-0.699,13.542-0.781,20.319c-0.027,2.268,0.469,4.612,1.124,6.803
	c0.874,2.922,3.6,4.241,7.08,3.831c3.101-0.365,4.566-1.835,5.004-5.087c0.196-1.452,0.445-2.914,0.451-4.372
	c0.053-11.825,0.056-23.651,0.068-35.477C380.156,179.486,380.094,179.052,380.009,177.917z"/>
<path fill="#5D5D5D" d="M440.682,66.332c15.428,0,30.662,0,46.064,0c0,60.598,0,121.152,0,181.837c-15.352,0-30.636,0-46.064,0
	C440.682,187.575,440.682,127.083,440.682,66.332z"/>
<path fill="#5D5D5D" d="M317.708,245.325c0,9.777,0,19.368,0,29.229c-0.688,0.084-1.345,0.235-2.002,0.235
	c-8.591,0.001-17.187,0.179-25.772-0.117c-4.379-0.151-8.779-0.883-13.098-1.848c-7.791-1.74-17.234-10.88-17.566-24.62
	c-0.172-7.105-0.74-14.202-0.758-21.304c-0.083-32.915-0.037-65.83-0.037-98.746c0-1.13,0-2.261,0-3.698c-3.345,0-6.479,0-9.763,0
	c0-9.689,0-19.07,0-28.804c3.156,0,6.286,0,9.644,0c0-9.917,0-19.49,0-29.321c15.179,0,30.124,0,45.327,0c0,9.651,0,19.231,0,29.121
	c4.153,0,8.057,0,12.109,0c0,9.778,0,19.24,0,28.967c-4.002,0-7.917,0-12.105,0c0,1.394,0,2.526,0,3.658
	c0,32.53-0.025,65.061,0.029,97.591c0.007,4.506,0.304,9.024,0.65,13.514c0.318,4.128,1.107,4.976,4.55,5.373
	C311.758,244.883,314.611,245.06,317.708,245.325z"/>
<g>
</g>
<g>
</g>
<g>
</g>
<g>
</g>
<g>
</g>
<g>
</g>
</svg>
